<svg aria-hidden="true" style="position: absolute; width: 0; height: 0; overflow: hidden;" version="1.1" xmlns="http://www.w3.org/2000/svg" xmlns:xlink="http://www.w3.org/1999/xlink">
<defs>
<symbol id="burgermenu" viewBox="0 0 32 32"><path d="M0 8.889V5.333h32v3.556H0zm0 8.889h32v-3.556H0v3.556zm0 8.889h32v-3.556H0v3.556z"/></symbol>
<symbol id="burgerclose" viewBox="0 0 32 32"><path d="M31.439 3.166L28.273 0 15.72 12.553 3.167 0 .001 3.166l12.553 12.553L.001 28.272l3.166 3.166L15.72 18.885l12.553 12.553 3.166-3.166-12.553-12.553L31.439 3.166z"/></symbol>
<symbol id="close" viewBox="0 0 32 32"><path d="M32 3.223L28.777 0 16 12.777 3.223 0 0 3.223 12.777 16 0 28.777 3.223 32 16 19.223 28.777 32 32 28.777 19.223 16 32 3.223z"/></symbol>
<symbol id="facebook" viewBox="0 0 32 32">
<path d="M16 0c-8.837 0-16 7.163-16 16s7.163 16 16 16 16-7.163 16-16-7.163-16-16-16zM22.104 8.148l-2.213 0.001c-1.736 0-2.071 0.825-2.071 2.035v2.668h4.138l-0.002 4.179h-4.136v10.724h-4.316v-10.725h-3.607v-4.177h3.608v-3.082c0-3.576 2.185-5.524 5.376-5.524l3.224 0.005v3.898z"></path>
</symbol>
<symbol id="instagram" viewBox="0 0 32 32">
<path d="M19.063 16c0 1.691-1.371 3.063-3.063 3.063s-3.063-1.371-3.063-3.063v0c0-1.691 1.371-3.063 3.063-3.063s3.063 1.371 3.063 3.063v0z"></path>
<path d="M23.162 10.582c-0.155-0.414-0.39-0.767-0.686-1.056l-0.001-0.001c-0.289-0.298-0.642-0.532-1.037-0.681l-0.020-0.006c-0.323-0.126-0.81-0.275-1.706-0.316-0.969-0.044-1.26-0.054-3.713-0.054s-2.744 0.009-3.713 0.054c-0.896 0.041-1.382 0.191-1.706 0.316-0.414 0.155-0.767 0.389-1.056 0.686l-0.001 0.001c-0.298 0.289-0.532 0.642-0.681 1.037l-0.007 0.020c-0.126 0.323-0.276 0.81-0.316 1.706-0.044 0.969-0.054 1.26-0.054 3.713s0.009 2.744 0.054 3.713c0.041 0.896 0.191 1.382 0.316 1.706 0.155 0.414 0.389 0.767 0.686 1.056l0.001 0.001c0.297 0.305 0.657 0.54 1.057 0.687 0.323 0.126 0.81 0.276 1.706 0.317 0.969 0.044 1.259 0.054 3.712 0.054 2.454 0 2.744-0.009 3.713-0.054 0.896-0.041 1.382-0.19 1.706-0.317 0.804-0.316 1.428-0.94 1.737-1.723l0.007-0.021c0.126-0.323 0.275-0.81 0.317-1.706 0.044-0.969 0.054-1.26 0.054-3.712 0-2.454-0.009-2.744-0.054-3.713-0.041-0.896-0.191-1.382-0.317-1.706zM16 20.717c-0.016 0-0.034 0-0.052 0-2.606 0-4.718-2.112-4.718-4.718s2.112-4.718 4.718-4.718c0.018 0 0.037 0 0.055 0l-0.003-0c2.606 0 4.718 2.112 4.718 4.718s-2.112 4.718-4.718 4.718v0zM20.905 12.198c-0.609 0-1.103-0.494-1.103-1.103s0.494-1.103 1.103-1.103v0c0.609 0 1.103 0.494 1.103 1.103s-0.494 1.103-1.103 1.103v0z"></path>
<path d="M16 0c-8.835 0-16 7.165-16 16s7.165 16 16 16 16-7.165 16-16-7.165-16-16-16zM25.132 19.788c-0.045 0.978-0.2 1.646-0.427 2.231-0.488 1.238-1.449 2.199-2.655 2.676l-0.032 0.011c-0.585 0.227-1.253 0.382-2.23 0.427-0.98 0.045-1.293 0.055-3.788 0.055-2.496 0-2.808-0.010-3.788-0.055-0.977-0.045-1.646-0.2-2.23-0.427-0.637-0.244-1.18-0.604-1.627-1.059l-0.001-0.001c-0.455-0.447-0.816-0.99-1.049-1.596l-0.010-0.031c-0.227-0.585-0.383-1.253-0.427-2.23-0.045-0.98-0.056-1.293-0.056-3.788s0.010-2.808 0.055-3.788c0.045-0.978 0.2-1.646 0.427-2.231 0.244-0.637 0.604-1.179 1.059-1.626l0.001-0.001c0.447-0.456 0.99-0.816 1.596-1.050l0.031-0.010c0.585-0.227 1.253-0.382 2.231-0.427 0.98-0.045 1.293-0.055 3.788-0.055s2.808 0.010 3.788 0.056c0.978 0.044 1.646 0.2 2.231 0.426 0.637 0.244 1.18 0.604 1.627 1.059l0.001 0.001c0.455 0.447 0.816 0.99 1.049 1.596l0.010 0.031c0.228 0.585 0.383 1.253 0.428 2.231 0.045 0.98 0.055 1.293 0.055 3.788s-0.010 2.808-0.055 3.788z"></path>
</symbol>
<symbol id="twitter" viewBox="0 0 32 32">
<path d="M16 0c-8.835 0-16 7.165-16 16s7.165 16 16 16 16-7.165 16-16-7.165-16-16-16zM23.305 12.475c0.007 0.157 0.010 0.315 0.010 0.474 0 4.853-3.694 10.449-10.449 10.449-0.003 0-0.006 0-0.009 0-2.088 0-4.031-0.615-5.66-1.675l0.040 0.025c0.287 0.034 0.58 0.051 0.876 0.051 1.721 0 3.305-0.586 4.561-1.572-1.6-0.031-2.947-1.080-3.424-2.525l-0.007-0.026c0.209 0.042 0.449 0.067 0.695 0.067 0.343 0 0.675-0.047 0.99-0.136l-0.026 0.006c-1.692-0.351-2.946-1.829-2.946-3.6v-0l0.001-0.047c0.479 0.272 1.050 0.44 1.658 0.459l0.006 0c-0.991-0.667-1.634-1.785-1.634-3.053 0-0.002 0-0.003 0-0.005v0c0-0.673 0.182-1.303 0.497-1.846 1.819 2.226 4.51 3.679 7.544 3.836l0.025 0.001c-0.062-0.252-0.097-0.542-0.097-0.84 0-2.029 1.644-3.673 3.673-3.673 1.057 0 2.010 0.447 2.68 1.162l0.002 0.002c0.88-0.177 1.661-0.486 2.366-0.91l-0.033 0.019c-0.285 0.865-0.856 1.571-1.599 2.021l-0.016 0.009c0.782-0.094 1.495-0.298 2.155-0.596l-0.046 0.019c-0.503 0.746-1.111 1.376-1.811 1.887l-0.021 0.015z"></path>
</symbol>
<symbol id="top" viewBox="0 0 32 32">
<path fill="#81637d" style="fill: var(--color1, #81637d)" opacity="0.51" d="M27.733 16c0-6.48-5.253-11.733-11.733-11.733s-11.733 5.253-11.733 11.733 5.253 11.733 11.733 11.733 11.733-5.253 11.733-11.733z"></path>
<path fill="#f6f1e8" style="fill: var(--color3, #f6f1e8)" d="M11.725 13.966c-0.077 0.075-0.125 0.18-0.125 0.296s0.048 0.221 0.125 0.296l0 0c0.076 0.074 0.18 0.12 0.295 0.12s0.219-0.046 0.295-0.12l-0 0 3.020-2.999v9.894c0 0.23 0.185 0.414 0.417 0.414 0.001 0 0.003 0 0.005 0 0.229 0 0.416-0.185 0.418-0.414v-9.895l3.015 2.999c0.166 0.16 0.435 0.16 0.596 0 0.077-0.075 0.125-0.18 0.125-0.296s-0.048-0.221-0.125-0.296l-0-0-3.735-3.708c-0.075-0.077-0.179-0.124-0.295-0.124s-0.22 0.048-0.295 0.124l-0 0-3.735 3.708z"></path>
</symbol>
</defs>
</svg>
